<svg width="37" height="37" viewBox="0 0 37 37" fill="none" xmlns="http://www.w3.org/2000/svg">
<circle cx="18.5" cy="18.5" r="18.5" fill="#212121"/>
<circle cx="18.5" cy="18.5" r="18" stroke="#9B9B9B" stroke-opacity="0.60278"/>
<path d="M21.8465 14.8H16.8975C16.6972 14.8 16.544 14.9528 16.544 15.1526C16.544 15.3524 16.6972 15.5052 16.8975 15.5052H21.0217L14.9061 21.605C14.7647 21.746 14.7647 21.9693 14.9061 22.0986C15.0475 22.2279 15.2714 22.2397 15.401 22.0986L21.493 16.0341V20.0889C21.493 20.2887 21.6462 20.4415 21.8465 20.4415C22.0469 20.4415 22.2 20.2887 22.2 20.0889V15.1526C22.2 14.9528 22.0469 14.8 21.8465 14.8Z" fill="#E2E2E2"/>
</svg>
