<svg width="50" height="50" viewBox="0 0 50 50" fill="none" xmlns="http://www.w3.org/2000/svg">
<circle cx="25" cy="25" r="25" fill="#313136"/>
<g clip-path="url(#clip0_488_2239)">
<path d="M21.7857 32.0714L16.6428 33.3571L17.9285 29.5V17.9285C17.9285 17.5875 18.064 17.2605 18.3051 17.0194C18.5462 16.7783 18.8733 16.6428 19.2143 16.6428H32.0714C32.4124 16.6428 32.7394 16.7783 32.9805 17.0194C33.2216 17.2605 33.3571 17.5875 33.3571 17.9285V30.7857C33.3571 31.1267 33.2216 31.4537 32.9805 31.6948C32.7394 31.9359 32.4124 32.0714 32.0714 32.0714H21.7857Z" stroke="#76D3FF" stroke-width="1.5" stroke-linecap="round" stroke-linejoin="round"/>
<path d="M25.6428 19.8571V23.7142" stroke="#76D3FF" stroke-width="1.5" stroke-linecap="round" stroke-linejoin="round"/>
<path d="M25.6429 28.2143C25.9979 28.2143 26.2857 27.9265 26.2857 27.5714C26.2857 27.2164 25.9979 26.9286 25.6429 26.9286C25.2878 26.9286 25 27.2164 25 27.5714C25 27.9265 25.2878 28.2143 25.6429 28.2143Z" stroke="#76D3FF" stroke-linecap="round" stroke-linejoin="round"/>
</g>
<defs>
<clipPath id="clip0_488_2239">
<rect width="18" height="18" fill="white" transform="translate(16 16)"/>
</clipPath>
</defs>
</svg>
